<svg width="25" height="25" viewBox="0 0 25 25" fill="none" xmlns="http://www.w3.org/2000/svg">
<g clip-path="url(#clip0_217_37052)">
<path d="M12.1337 5.30833C13.5995 5.30833 14.7878 4.12002 14.7878 2.65417C14.7878 1.18831 13.5995 0 12.1337 0C10.6678 0 9.47949 1.18831 9.47949 2.65417C9.47949 4.12002 10.6678 5.30833 12.1337 5.30833Z" fill="#FCFCFC"/>
<path d="M14.4085 6.06641H9.85853C9.05477 6.06878 8.28461 6.38913 7.71626 6.95747C7.14792 7.52582 6.82757 8.29598 6.8252 9.09974V14.1957C6.8252 14.71 7.22474 15.1474 7.73851 15.1659C7.86584 15.1706 7.99279 15.1495 8.11179 15.104C8.23079 15.0585 8.33939 14.9894 8.4311 14.901C8.52281 14.8126 8.59576 14.7065 8.64557 14.5893C8.69539 14.472 8.72105 14.3459 8.72103 14.2185V9.4917C8.71982 9.39388 8.75564 9.29922 8.8213 9.2267C8.88697 9.15419 8.97762 9.10917 9.07508 9.10069C9.12694 9.09724 9.17896 9.1045 9.2279 9.12201C9.27684 9.13951 9.32166 9.1669 9.35958 9.20246C9.39749 9.23801 9.42769 9.28099 9.4483 9.32871C9.4689 9.37643 9.47948 9.42788 9.47936 9.47985V23.1763C9.47936 23.4654 9.59421 23.7427 9.79865 23.9471C10.0031 24.1516 10.2804 24.2664 10.5695 24.2664C10.8586 24.2664 11.1359 24.1516 11.3403 23.9471C11.5447 23.7427 11.6596 23.4654 11.6596 23.1763V16.4148C11.6579 16.2924 11.7025 16.1739 11.7845 16.083C11.8665 15.9921 11.9798 15.9356 12.1018 15.9247C12.1666 15.9204 12.2317 15.9294 12.2929 15.9513C12.3541 15.9731 12.4102 16.0074 12.4576 16.0518C12.5051 16.0963 12.5428 16.15 12.5686 16.2097C12.5944 16.2694 12.6076 16.3337 12.6075 16.3987V23.1763C12.6075 23.4654 12.7223 23.7427 12.9268 23.9471C13.1312 24.1516 13.4085 24.2664 13.6976 24.2664C13.9867 24.2664 14.264 24.1516 14.4684 23.9471C14.6728 23.7427 14.7877 23.4654 14.7877 23.1763V9.4917C14.7865 9.39388 14.8223 9.29922 14.888 9.2267C14.9536 9.15419 15.0443 9.10917 15.1417 9.10069C15.1936 9.09724 15.2456 9.1045 15.2946 9.12201C15.3435 9.13951 15.3883 9.1669 15.4262 9.20246C15.4642 9.23801 15.4944 9.28099 15.515 9.32871C15.5356 9.37643 15.5461 9.42788 15.546 9.47985V14.1967C15.546 14.7109 15.9456 15.1484 16.4593 15.1669C16.5867 15.1715 16.7138 15.1504 16.8328 15.1049C16.9519 15.0593 17.0605 14.9902 17.1523 14.9016C17.244 14.8131 17.3169 14.7069 17.3667 14.5896C17.4164 14.4722 17.442 14.346 17.4419 14.2185V9.09974C17.4395 8.29598 17.1191 7.52582 16.5508 6.95747C15.9824 6.38913 15.2123 6.06878 14.4085 6.06641Z" fill="#FCFCFC"/>
</g>
<defs>
<clipPath id="clip0_217_37052">
<rect width="24.2667" height="24.2667" fill="white"/>
</clipPath>
</defs>
</svg>
