<svg width="25" height="25" viewBox="0 0 25 25" fill="none" xmlns="http://www.w3.org/2000/svg">
<g clip-path="url(#clip0_woman)">
<path d="M12.1214 5.3083C13.5873 5.3083 14.7756 4.11999 14.7756 2.65413C14.7756 1.18828 13.5873 0 12.1214 0C10.6556 0 9.46725 1.18828 9.46725 2.65413C9.46725 4.11999 10.6556 5.3083 12.1214 5.3083Z" fill="#FCFCFC"/>
<path d="M18.7037 13.1713L18.2141 11.5404V11.5352L17.1496 7.98716H17.1472L17.0283 7.58667C16.8977 7.14752 16.6287 6.76228 16.2615 6.48831C15.8943 6.21434 15.4484 6.0663 14.9902 6.06621H9.30273C8.84452 6.06607 8.39852 6.21403 8.03125 6.48803C7.66398 6.76203 7.39511 7.1474 7.26471 7.58667L7.14575 7.98716H7.14291L6.0784 11.5352V11.5404L5.5869 13.1713C5.43903 13.6638 5.69591 14.1979 6.18267 14.3629C6.30325 14.4039 6.43088 14.4202 6.55791 14.4109C6.68495 14.4015 6.80879 14.3666 6.92205 14.3083C7.0353 14.25 7.13564 14.1694 7.21707 14.0715C7.2985 13.9735 7.35936 13.8602 7.396 13.7382L8.60839 9.69768L8.71123 9.35501C8.74127 9.27126 8.79979 9.20074 8.87657 9.15579C8.95335 9.11084 9.04349 9.09432 9.13122 9.10912C9.21895 9.12392 9.29868 9.1691 9.35646 9.23675C9.41424 9.3044 9.4464 9.39022 9.44729 9.47918C9.44726 9.50483 9.44456 9.5304 9.43923 9.55549L7.36661 16.4653C7.33263 16.5786 7.32558 16.6981 7.34604 16.8146C7.36649 16.931 7.41388 17.041 7.48443 17.1359C7.55497 17.2307 7.64671 17.3078 7.75233 17.3609C7.85794 17.414 7.97451 17.4417 8.09272 17.4417H9.4672V22.8775C9.4672 23.6576 9.96628 24.2667 10.6047 24.2667C11.2431 24.2667 11.7422 23.6576 11.7422 22.8775V17.4417H12.5005V22.8775C12.5005 23.6576 12.9996 24.2667 13.638 24.2667C14.2765 24.2667 14.7755 23.6576 14.7755 22.8775V17.4417H16.1974C16.3157 17.4417 16.4323 17.4141 16.538 17.361C16.6436 17.308 16.7354 17.2309 16.806 17.1361C16.8766 17.0412 16.9241 16.9312 16.9445 16.8147C16.965 16.6982 16.958 16.5786 16.924 16.4653L14.8509 9.55454C14.8457 9.52977 14.8431 9.5045 14.8433 9.47918C14.8438 9.38995 14.8757 9.30374 14.9335 9.23573C14.9913 9.16773 15.0712 9.12228 15.1592 9.10739C15.2472 9.0925 15.3376 9.10912 15.4145 9.15432C15.4915 9.19953 15.55 9.27042 15.5798 9.35453L15.6827 9.69721L16.8946 13.7377C16.9314 13.8595 16.9923 13.9727 17.0738 14.0704C17.1553 14.1682 17.2556 14.2485 17.3688 14.3067C17.482 14.3649 17.6057 14.3996 17.7326 14.409C17.8595 14.4183 17.987 14.402 18.1075 14.361C18.5942 14.1979 18.8511 13.6638 18.7037 13.1713Z" fill="#FCFCFC"/>
</g>
<defs>
<clipPath id="clip0_woman">
<rect width="24.2667" height="24.2667" fill="white"/>
</clipPath>
</defs>
</svg>
