<svg width="18" height="18" viewBox="0 0 18 18" fill="none" xmlns="http://www.w3.org/2000/svg">
<path d="M15.4997 4.54842L10.1307 1.4283C9.7871 1.22915 9.39701 1.12427 8.99988 1.12427C8.60275 1.12427 8.21266 1.22915 7.86908 1.4283L2.50037 4.54842C2.47922 4.56083 2.46169 4.57855 2.4495 4.59982C2.43732 4.6211 2.43091 4.64519 2.43091 4.66971C2.43091 4.69423 2.43732 4.71832 2.4495 4.73959C2.46169 4.76087 2.47922 4.77859 2.50037 4.791L8.92974 8.57311C8.95137 8.58584 8.97601 8.59256 9.00111 8.59256C9.02621 8.59256 9.05085 8.58584 9.07248 8.57311L15.5004 4.791C15.5216 4.77853 15.539 4.76076 15.5512 4.73945C15.5633 4.71813 15.5696 4.69402 15.5696 4.66951C15.5695 4.64499 15.563 4.62092 15.5508 4.59967C15.5385 4.57843 15.5209 4.56076 15.4997 4.54842ZM9.00006 5.344C8.53424 5.344 8.15631 5.09229 8.15631 4.7815C8.15631 4.47072 8.53424 4.219 9.00006 4.219C9.46588 4.219 9.84381 4.47072 9.84381 4.7815C9.84381 5.09229 9.46588 5.344 9.00006 5.344Z" fill="white"/>
<path d="M8.367 9.52043L1.89825 5.74711C1.87689 5.73477 1.85265 5.72828 1.82798 5.72827C1.80331 5.72827 1.77907 5.73475 1.75769 5.74708C1.73632 5.7594 1.71856 5.77713 1.70621 5.79849C1.69386 5.81985 1.68734 5.84408 1.68732 5.86875V11.9831C1.68785 12.2777 1.76549 12.5671 1.91253 12.8223C2.05957 13.0776 2.27088 13.29 2.52544 13.4382L8.22638 16.8565C8.24775 16.8688 8.27198 16.8753 8.29666 16.8753C8.32133 16.8753 8.34557 16.8688 8.36694 16.8565C8.38832 16.8442 8.40607 16.8265 8.41842 16.8051C8.43078 16.7838 8.43729 16.7595 8.43732 16.7348V9.64207C8.43729 9.61741 8.43078 9.59319 8.41844 9.57184C8.4061 9.55049 8.38836 9.53276 8.367 9.52043ZM3.37482 12.9373C3.06404 12.9373 2.81232 12.5593 2.81232 12.0935C2.81232 11.6277 3.06404 11.2498 3.37482 11.2498C3.6856 11.2498 3.93732 11.6277 3.93732 12.0935C3.93732 12.5593 3.6856 12.9373 3.37482 12.9373ZM6.74982 11.8123C6.43904 11.8123 6.18732 11.4343 6.18732 10.9685C6.18732 10.5027 6.43904 10.1248 6.74982 10.1248C7.0606 10.1248 7.31232 10.5027 7.31232 10.9685C7.31232 11.4343 7.0606 11.8123 6.74982 11.8123Z" fill="white"/>
<path d="M16.1017 5.74858L9.633 9.54721C9.61169 9.55951 9.59399 9.57719 9.58165 9.59847C9.56931 9.61975 9.56277 9.6439 9.56268 9.6685V16.7346C9.56271 16.7592 9.56922 16.7835 9.58158 16.8048C9.59393 16.8262 9.61168 16.8439 9.63306 16.8562C9.65443 16.8686 9.67867 16.875 9.70334 16.875C9.72802 16.875 9.75225 16.8685 9.77362 16.8562L15.4742 13.438C15.7287 13.2898 15.94 13.0776 16.0871 12.8224C16.2342 12.5673 16.312 12.2781 16.3127 11.9835V5.87127C16.3128 5.84651 16.3065 5.82215 16.2942 5.80064C16.2819 5.77914 16.2642 5.76125 16.2428 5.7488C16.2214 5.73635 16.1971 5.72978 16.1723 5.72974C16.1475 5.7297 16.1232 5.7362 16.1017 5.74858ZM11.2502 14.9064C10.9394 14.9064 10.6877 14.5285 10.6877 14.0627C10.6877 13.5969 10.9394 13.2189 11.2502 13.2189C11.561 13.2189 11.8127 13.5969 11.8127 14.0627C11.8127 14.5285 11.561 14.9064 11.2502 14.9064ZM11.2502 11.8127C10.9394 11.8127 10.6877 11.4348 10.6877 10.9689C10.6877 10.5031 10.9394 10.1252 11.2502 10.1252C11.561 10.1252 11.8127 10.5031 11.8127 10.9689C11.8127 11.4348 11.561 11.8127 11.2502 11.8127ZM14.6252 12.9377C14.3144 12.9377 14.0627 12.5598 14.0627 12.0939C14.0627 11.6281 14.3144 11.2502 14.6252 11.2502C14.936 11.2502 15.1877 11.6281 15.1877 12.0939C15.1877 12.5598 14.936 12.9377 14.6252 12.9377ZM14.6252 9.84393C14.3144 9.84393 14.0627 9.466 14.0627 9.00018C14.0627 8.53436 14.3144 8.15643 14.6252 8.15643C14.936 8.15643 15.1877 8.53436 15.1877 9.00018C15.1877 9.466 14.936 9.84393 14.6252 9.84393Z" fill="white"/>
</svg>
