<svg width="32" height="32" viewBox="0 0 32 32" fill="none" xmlns="http://www.w3.org/2000/svg">
  <rect width="32" height="32" rx="8" fill="#AB9FF2"/>
  <path d="M16 6C10.477 6 6 10.477 6 16C6 19.395 7.66 22.395 10.215 24.22C10.425 23.485 10.745 22.135 10.745 21.125C10.745 19.865 10.09 18.985 9.59 18.34C8.93 17.495 8.5 16.825 8.5 15.5C8.5 12.19 11.19 9.5 14.5 9.5C17.81 9.5 20.5 12.19 20.5 15.5C20.5 16.825 20.07 17.495 19.41 18.34C18.91 18.985 18.255 19.865 18.255 21.125C18.255 22.135 18.575 23.485 18.785 24.22C21.34 22.395 23 19.395 23 16C23 10.477 18.523 6 16 6Z" fill="white"/>
  <circle cx="13" cy="15" r="1.5" fill="#AB9FF2"/>
  <circle cx="19" cy="15" r="1.5" fill="#AB9FF2"/>
</svg>
