<svg width="22" height="24" viewBox="0 0 22 24" fill="none" xmlns="http://www.w3.org/2000/svg">
<path fill-rule="evenodd" clip-rule="evenodd" d="M18.8938 6.07866L12.3525 2.33714C11.5663 1.88762 10.5978 1.88762 9.81165 2.33714L3.27034 6.07866C2.48417 6.5283 2 7.35921 2 8.2585V15.7414C2 16.6407 2.48417 17.4716 3.27034 17.9213L9.81165 21.6628C10.5978 22.1124 11.5663 22.1124 12.3525 21.6628L18.8938 17.9213C19.6798 17.4716 20.1641 16.6407 20.1641 15.7414V8.2585C20.1641 7.35921 19.6798 6.5283 18.8938 6.07866Z" stroke="white" stroke-width="2.0476" stroke-linecap="round" stroke-linejoin="round"/>
<path fill-rule="evenodd" clip-rule="evenodd" d="M3.76539 8.14177C3.89393 7.90998 4.18604 7.82629 4.41783 7.95484L11.2311 11.7334C11.3836 11.818 11.4782 11.9787 11.4782 12.1531V19.7943C11.4782 20.0593 11.2634 20.2742 10.9983 20.2742C10.7333 20.2742 10.5184 20.0593 10.5184 19.7943V12.4357L3.95232 8.79421C3.72053 8.66566 3.63684 8.37355 3.76539 8.14177Z" fill="white"/>
<path fill-rule="evenodd" clip-rule="evenodd" d="M18.1648 8.14137C18.2943 8.37264 18.2117 8.66508 17.9805 8.79455L11.2326 12.5721C11.0013 12.7015 10.7089 12.619 10.5794 12.3877C10.4499 12.1565 10.5325 11.864 10.7637 11.7346L17.5116 7.95704C17.7429 7.82757 18.0353 7.9101 18.1648 8.14137Z" fill="white"/>
<path d="M16.0133 16.217C16.455 16.0043 16.8305 16.131 16.8473 16.6222C16.8643 17.1179 16.5095 17.6026 16.068 17.8234C15.6228 18.0461 15.2476 17.9208 15.2301 17.4162C15.213 16.9157 15.5674 16.4317 16.0133 16.217ZM5.06015 16.5256C5.08931 16.0317 5.44087 15.8911 5.84921 16.091C6.25405 16.2893 6.57076 16.7583 6.5416 17.2541C6.51211 17.7542 6.15929 17.8934 5.75449 17.6935C5.34634 17.4918 5.03081 17.0237 5.06015 16.5256ZM16.024 11.3439C17.1242 10.8759 18.0331 11.074 18.0728 12.2316C18.1006 13.0434 17.6777 13.5753 17.2896 14.0314C16.8183 14.5837 16.629 14.8109 16.6451 15.2804C16.4397 15.4371 15.8909 15.7183 15.5103 15.8898C15.4034 15.9378 15.2783 15.8662 15.2711 15.7502C15.2345 15.1534 15.4364 14.6218 15.9 14.0929C16.2725 13.67 16.5216 13.3824 16.5094 13.0168C16.4967 12.6463 16.2351 12.5871 15.9713 12.7033C15.6956 12.8249 15.5206 13.1001 15.4791 13.3996C15.4648 13.5013 15.4026 13.5907 15.3082 13.633L14.4869 14.0002C14.28 14.0929 14.05 13.9279 14.0738 13.7043C14.1926 12.5976 15.0597 11.7541 16.024 11.3439ZM4.34042 12.1847C4.45584 11.033 5.34653 10.9215 6.2916 11.3742C7.29781 11.8565 8.07616 12.84 8.00644 14.0314C7.95753 14.8667 7.53996 15.0163 7.15976 15.1174C6.83653 15.1993 6.64854 15.2482 6.55527 15.4328C6.4725 15.5961 6.27291 15.6647 6.1041 15.591L5.4498 15.3058C5.32203 15.2501 5.23716 15.1238 5.24081 14.9855C5.25791 14.3698 5.48163 14.0336 5.93808 13.9338C6.30193 13.8531 6.54634 13.7935 6.56796 13.425C6.58986 13.052 6.36595 12.7659 6.1246 12.6496C5.9338 12.5576 5.78508 12.6 5.69687 12.7355C5.60094 12.883 5.41951 12.9491 5.26035 12.8722L4.53574 12.5226C4.40709 12.4604 4.3265 12.326 4.34042 12.1847ZM12.649 7.84197C12.9942 7.57527 13.5784 7.5345 14.068 7.83025C14.564 8.12995 14.5838 8.53509 14.2389 8.80193C13.8886 9.06992 13.2967 9.10473 12.8004 8.80486C12.3108 8.50907 12.299 8.10968 12.649 7.84197ZM8.16171 4.95134C9.01596 4.28572 10.2568 4.07762 11.3883 4.75799C12.1883 5.23966 12.1873 5.70536 12.151 6.11052C12.1135 6.47467 12.0933 6.67822 12.2769 6.87322C12.401 7.00509 12.392 7.20487 12.2535 7.32341L11.731 7.7697C11.6194 7.86495 11.4521 7.88171 11.3228 7.80877C10.7083 7.46229 10.456 7.07867 10.5299 6.60759C10.5868 6.23263 10.62 5.97701 10.2662 5.76384C9.90895 5.54887 9.54369 5.60397 9.33749 5.76287C9.1738 5.88808 9.15837 6.04553 9.25742 6.19646C9.37021 6.36861 9.30989 6.59493 9.14121 6.72088L8.66269 7.07732C8.50457 7.19521 8.28058 7.20024 8.11777 7.08806C7.10608 6.38948 7.36416 5.55646 8.16171 4.95134Z" fill="white"/>
</svg>
