<svg width="24" height="25" viewBox="0 0 24 25" fill="none" xmlns="http://www.w3.org/2000/svg">
<ellipse cx="12" cy="12.5" rx="12" ry="12" fill="#FF2D55"/>
<path fill-rule="evenodd" clip-rule="evenodd" d="M15.6464 8.90655C15.9808 9.24055 15.9806 9.78182 15.6458 10.1155L9.6422 16.0993C9.30741 16.433 8.76486 16.4328 8.43038 16.0988C8.0959 15.7648 8.09615 15.2235 8.43095 14.8898L14.4345 8.90599C14.7693 8.5723 15.3119 8.57255 15.6464 8.90655Z" fill="#FCFCFC"/>
<path fill-rule="evenodd" clip-rule="evenodd" d="M15.6464 16.099C15.3119 16.433 14.7693 16.4332 14.4345 16.0996L8.43095 10.1157C8.09616 9.78204 8.0959 9.24077 8.43038 8.90677C8.76486 8.57277 9.30741 8.57252 9.64221 8.9062L15.6458 14.89C15.9806 15.2237 15.9808 15.765 15.6464 16.099Z" fill="#FCFCFC"/>
</svg>
